<svg width="203" height="56" viewBox="0 0 203 56" fill="none" xmlns="http://www.w3.org/2000/svg">
<path fill-rule="evenodd" clip-rule="evenodd" d="M167.294 36.9152C171.281 36.9152 174.435 32.3392 174.435 26.7086V13.0999H177.638V26.7086C177.638 34.1934 173.026 40.2323 167.358 40.2323C161.69 40.2323 157.078 34.1934 157.078 26.7086V13.0999H160.281V26.7086C160.153 32.4243 163.307 37.0002 167.278 37.0002L167.294 36.9152ZM90.1638 40.4353H86.9614V38.0028C84.8962 39.5386 82.4371 40.3639 79.9162 40.3673C73.9921 40.4094 68.8137 36.1303 67.3941 30.0199C65.9745 23.9094 68.6841 17.562 73.9463 14.6709C79.2085 11.7798 85.6503 13.0994 89.5234 17.8618L87.1696 20.0903C84.2249 16.5926 79.4147 15.6788 75.5115 17.8755C71.6083 20.0722 69.618 24.8133 70.6876 29.3663C71.7572 33.9192 75.6112 37.1107 80.0283 37.1012C82.721 37.1071 85.2821 35.8647 87.0415 33.699H78.395V30.2968H90.1959L90.1638 40.4353ZM35.9954 13.3198H32.793V40.4012H45.6025V36.999H35.9954V13.3198ZM55.5798 33.7329C60.8857 33.7329 65.187 29.1633 65.187 23.5263C65.187 17.8894 60.8857 13.3198 55.5798 13.3198C53.0319 13.3198 50.5882 14.3951 48.7865 16.3092C46.9848 18.2233 45.9727 20.8194 45.9727 23.5263C45.9727 29.1633 50.2739 33.7329 55.5798 33.7329ZM55.5791 30.3329C59.1164 30.3329 61.9839 27.2864 61.9839 23.5285C61.9839 19.7705 59.1164 16.7241 55.5791 16.7241C52.0419 16.7241 49.1743 19.7705 49.1743 23.5285C49.192 27.2731 52.0543 30.2989 55.5791 30.2988V30.3329ZM61.9839 40.4381V37.0359H49.1743V40.4381H61.9839ZM111.557 23.5944C111.557 17.9575 107.255 13.3879 101.949 13.3879L101.981 13.3198C99.4167 13.3107 96.9551 14.3913 95.1446 16.3212C93.3341 18.251 92.3251 20.8698 92.3422 23.5944C92.3422 29.2314 96.6435 33.801 101.949 33.801C107.255 33.801 111.557 29.2314 111.557 23.5944ZM101.948 30.3997C105.486 30.3997 108.353 27.3533 108.353 23.5953C108.353 19.8374 105.486 16.7909 101.948 16.7909C98.4112 16.7909 95.5436 19.8374 95.5436 23.5953C95.5963 27.3266 98.4679 30.3167 101.98 30.2976L101.948 30.3997ZM108.353 40.5049V37.1027H95.5436V40.5049H108.353ZM114.967 13.3198H118.17V40.3672H114.967V13.3198ZM125.806 13.3213H122.604V40.4197H125.806V33.6153H126.302C129.962 34.0371 133.526 32.2006 135.48 28.8866C137.434 25.5727 137.434 21.3639 135.48 18.05C133.526 14.7361 129.962 12.8995 126.302 13.3213C126.137 13.3027 125.971 13.3027 125.806 13.3213ZM125.806 16.723V16.8023L125.79 16.808L125.806 16.723ZM125.806 16.8023C125.967 16.7456 126.134 16.7076 126.303 16.689C128.772 16.3396 131.208 17.5434 132.548 19.775C133.888 22.0066 133.888 24.861 132.548 27.0926C131.208 29.3242 128.772 30.528 126.303 30.1786H125.806V16.8023ZM148.826 15.3202L148.879 15.2757L148.863 15.3607L148.826 15.3202ZM144.364 13.4045C146.039 13.3519 147.657 14.0473 148.826 15.3202L146.509 17.266C145.675 16.3394 144.41 16.0105 143.267 16.4226C142.124 16.8348 141.309 17.9133 141.177 19.1882V19.4604C141.177 20.9573 142.154 21.961 144.059 22.0971C151.393 22.5734 154.755 26.2307 154.755 31.0618V31.368C154.369 35.2728 151.874 38.5795 148.371 39.831C144.868 41.0824 141 40.0489 138.471 37.1858L140.921 35.1785C142.075 36.4925 143.715 37.2016 145.404 37.1177C148.609 37.2972 151.377 34.7616 151.681 31.368V31.1299C151.681 26.5879 147.486 25.7544 143.851 25.3802C140.489 25.04 138.071 22.8115 138.071 19.5965V19.4604C138.317 15.9842 141.083 13.3222 144.364 13.4045ZM199.012 40.3161H202.215L202.182 13.3198L191.615 28.1023L181.047 13.3198V40.3672H184.249V23.4753L191.631 33.6819L199.012 23.4753V40.3161Z" fill="#6B6B6B"/>
<path fill-rule="evenodd" clip-rule="evenodd" d="M17.421 9.25395C17.421 4.14313 13.5212 0 8.71051 0C3.89983 0 0 4.14313 0 9.25395V37.2369L7.17336 42.6975V56H10.2477V42.6975L17.421 37.2369V9.25395ZM14.3466 24.9053L10.2475 29.2601V25.1774L14.3466 20.8226V24.9053ZM7.23822 25.1774L3.13916 20.8226V24.9053L7.23822 29.2601V25.1774ZM14.3469 16.1952L8.71069 22.1831L3.07448 16.0592V11.9765L8.71069 17.9644L14.3469 11.9765V16.1952ZM14.1545 7.70516C13.4852 5.09359 11.2581 3.27728 8.71043 3.26531V3.19726C6.14449 3.21753 3.91142 5.0666 3.26636 7.70516L8.71043 13.4719L14.1545 7.70516ZM3.07448 35.5857V29.4618L7.17354 33.8166V38.6817L3.07448 35.5857ZM10.2475 33.8166V38.6987L14.3466 35.5687V29.4618L10.2475 33.8166Z" fill="#FFB703"/>
</svg>
